# Presa de gravedad, elementos Q4
# n_nodes n_elements dim
175 144 2

# MATERIAL material_id model E nu rho thickness
MATERIAL 1 plane_strain 21000000000.0 0.2 2400.0 1.0

# node_number x y
1 0.0000 0.0000
2 3.0000 0.0000
3 2.8958 1.2500
4 0.0000 1.2500
5 6.0000 0.0000
6 5.7917 1.2500
7 9.0000 0.0000
8 8.6875 1.2500
9 12.0000 0.0000
10 11.5833 1.2500
11 15.0000 0.0000
12 14.4792 1.2500
13 18.0000 0.0000
14 17.3750 1.2500
15 2.7917 2.5000
16 0.0000 2.5000
17 5.5833 2.5000
18 8.3750 2.5000
19 11.1667 2.5000
20 13.9583 2.5000
21 16.7500 2.5000
22 2.6875 3.7500
23 0.0000 3.7500
24 5.3750 3.7500
25 8.0625 3.7500
26 10.7500 3.7500
27 13.4375 3.7500
28 16.1250 3.7500
29 2.5833 5.0000
30 0.0000 5.0000
31 5.1667 5.0000
32 7.7500 5.0000
33 10.3333 5.0000
34 12.9167 5.0000
35 15.5000 5.0000
36 2.4792 6.2500
37 0.0000 6.2500
38 4.9583 6.2500
39 7.4375 6.2500
40 9.9167 6.2500
41 12.3958 6.2500
42 14.8750 6.2500
43 2.3750 7.5000
44 0.0000 7.5000
45 4.7500 7.5000
46 7.1250 7.5000
47 9.5000 7.5000
48 11.8750 7.5000
49 14.2500 7.5000
50 2.2708 8.7500
51 0.0000 8.7500
52 4.5417 8.7500
53 6.8125 8.7500
54 9.0833 8.7500
55 11.3542 8.7500
56 13.6250 8.7500
57 2.1667 10.0000
58 0.0000 10.0000
59 4.3333 10.0000
60 6.5000 10.0000
61 8.6667 10.0000
62 10.8333 10.0000
63 13.0000 10.0000
64 2.0625 11.2500
65 0.0000 11.2500
66 4.1250 11.2500
67 6.1875 11.2500
68 8.2500 11.2500
69 10.3125 11.2500
70 12.3750 11.2500
71 1.9583 12.5000
72 0.0000 12.5000
73 3.9167 12.5000
74 5.8750 12.5000
75 7.8333 12.5000
76 9.7917 12.5000
77 11.7500 12.5000
78 1.8542 13.7500
79 0.0000 13.7500
80 3.7083 13.7500
81 5.5625 13.7500
82 7.4167 13.7500
83 9.2708 13.7500
84 11.1250 13.7500
85 1.7500 15.0000
86 0.0000 15.0000
87 3.5000 15.0000
88 5.2500 15.0000
89 7.0000 15.0000
90 8.7500 15.0000
91 10.5000 15.0000
92 1.6458 16.2500
93 0.0000 16.2500
94 3.2917 16.2500
95 4.9375 16.2500
96 6.5833 16.2500
97 8.2292 16.2500
98 9.8750 16.2500
99 1.5417 17.5000
100 0.0000 17.5000
101 3.0833 17.5000
102 4.6250 17.5000
103 6.1667 17.5000
104 7.7083 17.5000
105 9.2500 17.5000
106 1.4375 18.7500
107 0.0000 18.7500
108 2.8750 18.7500
109 4.3125 18.7500
110 5.7500 18.7500
111 7.1875 18.7500
112 8.6250 18.7500
113 1.3333 20.0000
114 0.0000 20.0000
115 2.6667 20.0000
116 4.0000 20.0000
117 5.3333 20.0000
118 6.6667 20.0000
119 8.0000 20.0000
120 1.2292 21.2500
121 0.0000 21.2500
122 2.4583 21.2500
123 3.6875 21.2500
124 4.9167 21.2500
125 6.1458 21.2500
126 7.3750 21.2500
127 1.1250 22.5000
128 0.0000 22.5000
129 2.2500 22.5000
130 3.3750 22.5000
131 4.5000 22.5000
132 5.6250 22.5000
133 6.7500 22.5000
134 1.0208 23.7500
135 0.0000 23.7500
136 2.0417 23.7500
137 3.0625 23.7500
138 4.0833 23.7500
139 5.1042 23.7500
140 6.1250 23.7500
141 0.9167 25.0000
142 0.0000 25.0000
143 1.8333 25.0000
144 2.7500 25.0000
145 3.6667 25.0000
146 4.5833 25.0000
147 5.5000 25.0000
148 0.8125 26.2500
149 0.0000 26.2500
150 1.6250 26.2500
151 2.4375 26.2500
152 3.2500 26.2500
153 4.0625 26.2500
154 4.8750 26.2500
155 0.7083 27.5000
156 0.0000 27.5000
157 1.4167 27.5000
158 2.1250 27.5000
159 2.8333 27.5000
160 3.5417 27.5000
161 4.2500 27.5000
162 0.6042 28.7500
163 0.0000 28.7500
164 1.2083 28.7500
165 1.8125 28.7500
166 2.4167 28.7500
167 3.0208 28.7500
168 3.6250 28.7500
169 0.5000 30.0000
170 0.0000 30.0000
171 1.0000 30.0000
172 1.5000 30.0000
173 2.0000 30.0000
174 2.5000 30.0000
175 3.0000 30.0000

# element_number element_type order material_id connectivity
1 Q4 1 1 1 2 3 4
2 Q4 1 1 2 5 6 3
3 Q4 1 1 5 7 8 6
4 Q4 1 1 7 9 10 8
5 Q4 1 1 9 11 12 10
6 Q4 1 1 11 13 14 12
7 Q4 1 1 4 3 15 16
8 Q4 1 1 3 6 17 15
9 Q4 1 1 6 8 18 17
10 Q4 1 1 8 10 19 18
11 Q4 1 1 10 12 20 19
12 Q4 1 1 12 14 21 20
13 Q4 1 1 16 15 22 23
14 Q4 1 1 15 17 24 22
15 Q4 1 1 17 18 25 24
16 Q4 1 1 18 19 26 25
17 Q4 1 1 19 20 27 26
18 Q4 1 1 20 21 28 27
19 Q4 1 1 23 22 29 30
20 Q4 1 1 22 24 31 29
21 Q4 1 1 24 25 32 31
22 Q4 1 1 25 26 33 32
23 Q4 1 1 26 27 34 33
24 Q4 1 1 27 28 35 34
25 Q4 1 1 30 29 36 37
26 Q4 1 1 29 31 38 36
27 Q4 1 1 31 32 39 38
28 Q4 1 1 32 33 40 39
29 Q4 1 1 33 34 41 40
30 Q4 1 1 34 35 42 41
31 Q4 1 1 37 36 43 44
32 Q4 1 1 36 38 45 43
33 Q4 1 1 38 39 46 45
34 Q4 1 1 39 40 47 46
35 Q4 1 1 40 41 48 47
36 Q4 1 1 41 42 49 48
37 Q4 1 1 44 43 50 51
38 Q4 1 1 43 45 52 50
39 Q4 1 1 45 46 53 52
40 Q4 1 1 46 47 54 53
41 Q4 1 1 47 48 55 54
42 Q4 1 1 48 49 56 55
43 Q4 1 1 51 50 57 58
44 Q4 1 1 50 52 59 57
45 Q4 1 1 52 53 60 59
46 Q4 1 1 53 54 61 60
47 Q4 1 1 54 55 62 61
48 Q4 1 1 55 56 63 62
49 Q4 1 1 58 57 64 65
50 Q4 1 1 57 59 66 64
51 Q4 1 1 59 60 67 66
52 Q4 1 1 60 61 68 67
53 Q4 1 1 61 62 69 68
54 Q4 1 1 62 63 70 69
55 Q4 1 1 65 64 71 72
56 Q4 1 1 64 66 73 71
57 Q4 1 1 66 67 74 73
58 Q4 1 1 67 68 75 74
59 Q4 1 1 68 69 76 75
60 Q4 1 1 69 70 77 76
61 Q4 1 1 72 71 78 79
62 Q4 1 1 71 73 80 78
63 Q4 1 1 73 74 81 80
64 Q4 1 1 74 75 82 81
65 Q4 1 1 75 76 83 82
66 Q4 1 1 76 77 84 83
67 Q4 1 1 79 78 85 86
68 Q4 1 1 78 80 87 85
69 Q4 1 1 80 81 88 87
70 Q4 1 1 81 82 89 88
71 Q4 1 1 82 83 90 89
72 Q4 1 1 83 84 91 90
73 Q4 1 1 86 85 92 93
74 Q4 1 1 85 87 94 92
75 Q4 1 1 87 88 95 94
76 Q4 1 1 88 89 96 95
77 Q4 1 1 89 90 97 96
78 Q4 1 1 90 91 98 97
79 Q4 1 1 93 92 99 100
80 Q4 1 1 92 94 101 99
81 Q4 1 1 94 95 102 101
82 Q4 1 1 95 96 103 102
83 Q4 1 1 96 97 104 103
84 Q4 1 1 97 98 105 104
85 Q4 1 1 100 99 106 107
86 Q4 1 1 99 101 108 106
87 Q4 1 1 101 102 109 108
88 Q4 1 1 102 103 110 109
89 Q4 1 1 103 104 111 110
90 Q4 1 1 104 105 112 111
91 Q4 1 1 107 106 113 114
92 Q4 1 1 106 108 115 113
93 Q4 1 1 108 109 116 115
94 Q4 1 1 109 110 117 116
95 Q4 1 1 110 111 118 117
96 Q4 1 1 111 112 119 118
97 Q4 1 1 114 113 120 121
98 Q4 1 1 113 115 122 120
99 Q4 1 1 115 116 123 122
100 Q4 1 1 116 117 124 123
101 Q4 1 1 117 118 125 124
102 Q4 1 1 118 119 126 125
103 Q4 1 1 121 120 127 128
104 Q4 1 1 120 122 129 127
105 Q4 1 1 122 123 130 129
106 Q4 1 1 123 124 131 130
107 Q4 1 1 124 125 132 131
108 Q4 1 1 125 126 133 132
109 Q4 1 1 128 127 134 135
110 Q4 1 1 127 129 136 134
111 Q4 1 1 129 130 137 136
112 Q4 1 1 130 131 138 137
113 Q4 1 1 131 132 139 138
114 Q4 1 1 132 133 140 139
115 Q4 1 1 135 134 141 142
116 Q4 1 1 134 136 143 141
117 Q4 1 1 136 137 144 143
118 Q4 1 1 137 138 145 144
119 Q4 1 1 138 139 146 145
120 Q4 1 1 139 140 147 146
121 Q4 1 1 142 141 148 149
122 Q4 1 1 141 143 150 148
123 Q4 1 1 143 144 151 150
124 Q4 1 1 144 145 152 151
125 Q4 1 1 145 146 153 152
126 Q4 1 1 146 147 154 153
127 Q4 1 1 149 148 155 156
128 Q4 1 1 148 150 157 155
129 Q4 1 1 150 151 158 157
130 Q4 1 1 151 152 159 158
131 Q4 1 1 152 153 160 159
132 Q4 1 1 153 154 161 160
133 Q4 1 1 156 155 162 163
134 Q4 1 1 155 157 164 162
135 Q4 1 1 157 158 165 164
136 Q4 1 1 158 159 166 165
137 Q4 1 1 159 160 167 166
138 Q4 1 1 160 161 168 167
139 Q4 1 1 163 162 169 170
140 Q4 1 1 162 164 171 169
141 Q4 1 1 164 165 172 171
142 Q4 1 1 165 166 173 172
143 Q4 1 1 166 167 174 173
144 Q4 1 1 167 168 175 174
