# Presa de gravedad, elementos Q8
# n_nodes n_elements dim
493 144 2

# MATERIAL material_id model E nu rho thickness
MATERIAL 1 plane_strain 21000000000.0 0.2 2400.0 1.0

# node_number x y
1 0.0000 0.0000
2 3.0000 0.0000
3 2.8958 1.2500
4 0.0000 1.2500
5 1.5000 0.0000
6 2.9479 0.6250
7 1.4479 1.2500
8 0.0000 0.6250
9 6.0000 0.0000
10 5.7917 1.2500
11 4.5000 0.0000
12 5.8958 0.6250
13 4.3438 1.2500
14 9.0000 0.0000
15 8.6875 1.2500
16 7.5000 0.0000
17 8.8438 0.6250
18 7.2396 1.2500
19 12.0000 0.0000
20 11.5833 1.2500
21 10.5000 0.0000
22 11.7917 0.6250
23 10.1354 1.2500
24 15.0000 0.0000
25 14.4792 1.2500
26 13.5000 0.0000
27 14.7396 0.6250
28 13.0312 1.2500
29 18.0000 0.0000
30 17.3750 1.2500
31 16.5000 0.0000
32 17.6875 0.6250
33 15.9271 1.2500
34 2.7917 2.5000
35 0.0000 2.5000
36 2.8438 1.8750
37 1.3958 2.5000
38 0.0000 1.8750
39 5.5833 2.5000
40 5.6875 1.8750
41 4.1875 2.5000
42 8.3750 2.5000
43 8.5312 1.8750
44 6.9792 2.5000
45 11.1667 2.5000
46 11.3750 1.8750
47 9.7708 2.5000
48 13.9583 2.5000
49 14.2188 1.8750
50 12.5625 2.5000
51 16.7500 2.5000
52 17.0625 1.8750
53 15.3542 2.5000
54 2.6875 3.7500
55 0.0000 3.7500
56 2.7396 3.1250
57 1.3438 3.7500
58 0.0000 3.1250
59 5.3750 3.7500
60 5.4792 3.1250
61 4.0312 3.7500
62 8.0625 3.7500
63 8.2188 3.1250
64 6.7188 3.7500
65 10.7500 3.7500
66 10.9583 3.1250
67 9.4062 3.7500
68 13.4375 3.7500
69 13.6979 3.1250
70 12.0938 3.7500
71 16.1250 3.7500
72 16.4375 3.1250
73 14.7812 3.7500
74 2.5833 5.0000
75 0.0000 5.0000
76 2.6354 4.3750
77 1.2917 5.0000
78 0.0000 4.3750
79 5.1667 5.0000
80 5.2708 4.3750
81 3.8750 5.0000
82 7.7500 5.0000
83 7.9062 4.3750
84 6.4583 5.0000
85 10.3333 5.0000
86 10.5417 4.3750
87 9.0417 5.0000
88 12.9167 5.0000
89 13.1771 4.3750
90 11.6250 5.0000
91 15.5000 5.0000
92 15.8125 4.3750
93 14.2083 5.0000
94 2.4792 6.2500
95 0.0000 6.2500
96 2.5312 5.6250
97 1.2396 6.2500
98 0.0000 5.6250
99 4.9583 6.2500
100 5.0625 5.6250
101 3.7188 6.2500
102 7.4375 6.2500
103 7.5938 5.6250
104 6.1979 6.2500
105 9.9167 6.2500
106 10.1250 5.6250
107 8.6771 6.2500
108 12.3958 6.2500
109 12.6562 5.6250
110 11.1562 6.2500
111 14.8750 6.2500
112 15.1875 5.6250
113 13.6354 6.2500
114 2.3750 7.5000
115 0.0000 7.5000
116 2.4271 6.8750
117 1.1875 7.5000
118 0.0000 6.8750
119 4.7500 7.5000
120 4.8542 6.8750
121 3.5625 7.5000
122 7.1250 7.5000
123 7.2812 6.8750
124 5.9375 7.5000
125 9.5000 7.5000
126 9.7083 6.8750
127 8.3125 7.5000
128 11.8750 7.5000
129 12.1354 6.8750
130 10.6875 7.5000
131 14.2500 7.5000
132 14.5625 6.8750
133 13.0625 7.5000
134 2.2708 8.7500
135 0.0000 8.7500
136 2.3229 8.1250
137 1.1354 8.7500
138 0.0000 8.1250
139 4.5417 8.7500
140 4.6458 8.1250
141 3.4062 8.7500
142 6.8125 8.7500
143 6.9688 8.1250
144 5.6771 8.7500
145 9.0833 8.7500
146 9.2917 8.1250
147 7.9479 8.7500
148 11.3542 8.7500
149 11.6146 8.1250
150 10.2188 8.7500
151 13.6250 8.7500
152 13.9375 8.1250
153 12.4896 8.7500
154 2.1667 10.0000
155 0.0000 10.0000
156 2.2188 9.3750
157 1.0833 10.0000
158 0.0000 9.3750
159 4.3333 10.0000
160 4.4375 9.3750
161 3.2500 10.0000
162 6.5000 10.0000
163 6.6562 9.3750
164 5.4167 10.0000
165 8.6667 10.0000
166 8.8750 9.3750
167 7.5833 10.0000
168 10.8333 10.0000
169 11.0938 9.3750
170 9.7500 10.0000
171 13.0000 10.0000
172 13.3125 9.3750
173 11.9167 10.0000
174 2.0625 11.2500
175 0.0000 11.2500
176 2.1146 10.6250
177 1.0312 11.2500
178 0.0000 10.6250
179 4.1250 11.2500
180 4.2292 10.6250
181 3.0938 11.2500
182 6.1875 11.2500
183 6.3438 10.6250
184 5.1562 11.2500
185 8.2500 11.2500
186 8.4583 10.6250
187 7.2188 11.2500
188 10.3125 11.2500
189 10.5729 10.6250
190 9.2812 11.2500
191 12.3750 11.2500
192 12.6875 10.6250
193 11.3438 11.2500
194 1.9583 12.5000
195 0.0000 12.5000
196 2.0104 11.8750
197 0.9792 12.5000
198 0.0000 11.8750
199 3.9167 12.5000
200 4.0208 11.8750
201 2.9375 12.5000
202 5.8750 12.5000
203 6.0312 11.8750
204 4.8958 12.5000
205 7.8333 12.5000
206 8.0417 11.8750
207 6.8542 12.5000
208 9.7917 12.5000
209 10.0521 11.8750
210 8.8125 12.5000
211 11.7500 12.5000
212 12.0625 11.8750
213 10.7708 12.5000
214 1.8542 13.7500
215 0.0000 13.7500
216 1.9062 13.1250
217 0.9271 13.7500
218 0.0000 13.1250
219 3.7083 13.7500
220 3.8125 13.1250
221 2.7812 13.7500
222 5.5625 13.7500
223 5.7188 13.1250
224 4.6354 13.7500
225 7.4167 13.7500
226 7.6250 13.1250
227 6.4896 13.7500
228 9.2708 13.7500
229 9.5312 13.1250
230 8.3438 13.7500
231 11.1250 13.7500
232 11.4375 13.1250
233 10.1979 13.7500
234 1.7500 15.0000
235 0.0000 15.0000
236 1.8021 14.3750
237 0.8750 15.0000
238 0.0000 14.3750
239 3.5000 15.0000
240 3.6042 14.3750
241 2.6250 15.0000
242 5.2500 15.0000
243 5.4062 14.3750
244 4.3750 15.0000
245 7.0000 15.0000
246 7.2083 14.3750
247 6.1250 15.0000
248 8.7500 15.0000
249 9.0104 14.3750
250 7.8750 15.0000
251 10.5000 15.0000
252 10.8125 14.3750
253 9.6250 15.0000
254 1.6458 16.2500
255 0.0000 16.2500
256 1.6979 15.6250
257 0.8229 16.2500
258 0.0000 15.6250
259 3.2917 16.2500
260 3.3958 15.6250
261 2.4688 16.2500
262 4.9375 16.2500
263 5.0938 15.6250
264 4.1146 16.2500
265 6.5833 16.2500
266 6.7917 15.6250
267 5.7604 16.2500
268 8.2292 16.2500
269 8.4896 15.6250
270 7.4062 16.2500
271 9.8750 16.2500
272 10.1875 15.6250
273 9.0521 16.2500
274 1.5417 17.5000
275 0.0000 17.5000
276 1.5938 16.8750
277 0.7708 17.5000
278 0.0000 16.8750
279 3.0833 17.5000
280 3.1875 16.8750
281 2.3125 17.5000
282 4.6250 17.5000
283 4.7812 16.8750
284 3.8542 17.5000
285 6.1667 17.5000
286 6.3750 16.8750
287 5.3958 17.5000
288 7.7083 17.5000
289 7.9688 16.8750
290 6.9375 17.5000
291 9.2500 17.5000
292 9.5625 16.8750
293 8.4792 17.5000
294 1.4375 18.7500
295 0.0000 18.7500
296 1.4896 18.1250
297 0.7188 18.7500
298 0.0000 18.1250
299 2.8750 18.7500
300 2.9792 18.1250
301 2.1562 18.7500
302 4.3125 18.7500
303 4.4688 18.1250
304 3.5938 18.7500
305 5.7500 18.7500
306 5.9583 18.1250
307 5.0312 18.7500
308 7.1875 18.7500
309 7.4479 18.1250
310 6.4688 18.7500
311 8.6250 18.7500
312 8.9375 18.1250
313 7.9062 18.7500
314 1.3333 20.0000
315 0.0000 20.0000
316 1.3854 19.3750
317 0.6667 20.0000
318 0.0000 19.3750
319 2.6667 20.0000
320 2.7708 19.3750
321 2.0000 20.0000
322 4.0000 20.0000
323 4.1562 19.3750
324 3.3333 20.0000
325 5.3333 20.0000
326 5.5417 19.3750
327 4.6667 20.0000
328 6.6667 20.0000
329 6.9271 19.3750
330 6.0000 20.0000
331 8.0000 20.0000
332 8.3125 19.3750
333 7.3333 20.0000
334 1.2292 21.2500
335 0.0000 21.2500
336 1.2812 20.6250
337 0.6146 21.2500
338 0.0000 20.6250
339 2.4583 21.2500
340 2.5625 20.6250
341 1.8438 21.2500
342 3.6875 21.2500
343 3.8438 20.6250
344 3.0729 21.2500
345 4.9167 21.2500
346 5.1250 20.6250
347 4.3021 21.2500
348 6.1458 21.2500
349 6.4062 20.6250
350 5.5312 21.2500
351 7.3750 21.2500
352 7.6875 20.6250
353 6.7604 21.2500
354 1.1250 22.5000
355 0.0000 22.5000
356 1.1771 21.8750
357 0.5625 22.5000
358 0.0000 21.8750
359 2.2500 22.5000
360 2.3542 21.8750
361 1.6875 22.5000
362 3.3750 22.5000
363 3.5312 21.8750
364 2.8125 22.5000
365 4.5000 22.5000
366 4.7083 21.8750
367 3.9375 22.5000
368 5.6250 22.5000
369 5.8854 21.8750
370 5.0625 22.5000
371 6.7500 22.5000
372 7.0625 21.8750
373 6.1875 22.5000
374 1.0208 23.7500
375 0.0000 23.7500
376 1.0729 23.1250
377 0.5104 23.7500
378 0.0000 23.1250
379 2.0417 23.7500
380 2.1458 23.1250
381 1.5312 23.7500
382 3.0625 23.7500
383 3.2188 23.1250
384 2.5521 23.7500
385 4.0833 23.7500
386 4.2917 23.1250
387 3.5729 23.7500
388 5.1042 23.7500
389 5.3646 23.1250
390 4.5938 23.7500
391 6.1250 23.7500
392 6.4375 23.1250
393 5.6146 23.7500
394 0.9167 25.0000
395 0.0000 25.0000
396 0.9688 24.3750
397 0.4583 25.0000
398 0.0000 24.3750
399 1.8333 25.0000
400 1.9375 24.3750
401 1.3750 25.0000
402 2.7500 25.0000
403 2.9062 24.3750
404 2.2917 25.0000
405 3.6667 25.0000
406 3.8750 24.3750
407 3.2083 25.0000
408 4.5833 25.0000
409 4.8438 24.3750
410 4.1250 25.0000
411 5.5000 25.0000
412 5.8125 24.3750
413 5.0417 25.0000
414 0.8125 26.2500
415 0.0000 26.2500
416 0.8646 25.6250
417 0.4062 26.2500
418 0.0000 25.6250
419 1.6250 26.2500
420 1.7292 25.6250
421 1.2188 26.2500
422 2.4375 26.2500
423 2.5938 25.6250
424 2.0312 26.2500
425 3.2500 26.2500
426 3.4583 25.6250
427 2.8438 26.2500
428 4.0625 26.2500
429 4.3229 25.6250
430 3.6562 26.2500
431 4.8750 26.2500
432 5.1875 25.6250
433 4.4688 26.2500
434 0.7083 27.5000
435 0.0000 27.5000
436 0.7604 26.8750
437 0.3542 27.5000
438 0.0000 26.8750
439 1.4167 27.5000
440 1.5208 26.8750
441 1.0625 27.5000
442 2.1250 27.5000
443 2.2812 26.8750
444 1.7708 27.5000
445 2.8333 27.5000
446 3.0417 26.8750
447 2.4792 27.5000
448 3.5417 27.5000
449 3.8021 26.8750
450 3.1875 27.5000
451 4.2500 27.5000
452 4.5625 26.8750
453 3.8958 27.5000
454 0.6042 28.7500
455 0.0000 28.7500
456 0.6562 28.1250
457 0.3021 28.7500
458 0.0000 28.1250
459 1.2083 28.7500
460 1.3125 28.1250
461 0.9062 28.7500
462 1.8125 28.7500
463 1.9688 28.1250
464 1.5104 28.7500
465 2.4167 28.7500
466 2.6250 28.1250
467 2.1146 28.7500
468 3.0208 28.7500
469 3.2812 28.1250
470 2.7188 28.7500
471 3.6250 28.7500
472 3.9375 28.1250
473 3.3229 28.7500
474 0.5000 30.0000
475 0.0000 30.0000
476 0.5521 29.3750
477 0.2500 30.0000
478 0.0000 29.3750
479 1.0000 30.0000
480 1.1042 29.3750
481 0.7500 30.0000
482 1.5000 30.0000
483 1.6562 29.3750
484 1.2500 30.0000
485 2.0000 30.0000
486 2.2083 29.3750
487 1.7500 30.0000
488 2.5000 30.0000
489 2.7604 29.3750
490 2.2500 30.0000
491 3.0000 30.0000
492 3.3125 29.3750
493 2.7500 30.0000

# element_number element_type order material_id connectivity
1 Q8 2 1 1 2 3 4 5 6 7 8
2 Q8 2 1 2 9 10 3 11 12 13 6
3 Q8 2 1 9 14 15 10 16 17 18 12
4 Q8 2 1 14 19 20 15 21 22 23 17
5 Q8 2 1 19 24 25 20 26 27 28 22
6 Q8 2 1 24 29 30 25 31 32 33 27
7 Q8 2 1 4 3 34 35 7 36 37 38
8 Q8 2 1 3 10 39 34 13 40 41 36
9 Q8 2 1 10 15 42 39 18 43 44 40
10 Q8 2 1 15 20 45 42 23 46 47 43
11 Q8 2 1 20 25 48 45 28 49 50 46
12 Q8 2 1 25 30 51 48 33 52 53 49
13 Q8 2 1 35 34 54 55 37 56 57 58
14 Q8 2 1 34 39 59 54 41 60 61 56
15 Q8 2 1 39 42 62 59 44 63 64 60
16 Q8 2 1 42 45 65 62 47 66 67 63
17 Q8 2 1 45 48 68 65 50 69 70 66
18 Q8 2 1 48 51 71 68 53 72 73 69
19 Q8 2 1 55 54 74 75 57 76 77 78
20 Q8 2 1 54 59 79 74 61 80 81 76
21 Q8 2 1 59 62 82 79 64 83 84 80
22 Q8 2 1 62 65 85 82 67 86 87 83
23 Q8 2 1 65 68 88 85 70 89 90 86
24 Q8 2 1 68 71 91 88 73 92 93 89
25 Q8 2 1 75 74 94 95 77 96 97 98
26 Q8 2 1 74 79 99 94 81 100 101 96
27 Q8 2 1 79 82 102 99 84 103 104 100
28 Q8 2 1 82 85 105 102 87 106 107 103
29 Q8 2 1 85 88 108 105 90 109 110 106
30 Q8 2 1 88 91 111 108 93 112 113 109
31 Q8 2 1 95 94 114 115 97 116 117 118
32 Q8 2 1 94 99 119 114 101 120 121 116
33 Q8 2 1 99 102 122 119 104 123 124 120
34 Q8 2 1 102 105 125 122 107 126 127 123
35 Q8 2 1 105 108 128 125 110 129 130 126
36 Q8 2 1 108 111 131 128 113 132 133 129
37 Q8 2 1 115 114 134 135 117 136 137 138
38 Q8 2 1 114 119 139 134 121 140 141 136
39 Q8 2 1 119 122 142 139 124 143 144 140
40 Q8 2 1 122 125 145 142 127 146 147 143
41 Q8 2 1 125 128 148 145 130 149 150 146
42 Q8 2 1 128 131 151 148 133 152 153 149
43 Q8 2 1 135 134 154 155 137 156 157 158
44 Q8 2 1 134 139 159 154 141 160 161 156
45 Q8 2 1 139 142 162 159 144 163 164 160
46 Q8 2 1 142 145 165 162 147 166 167 163
47 Q8 2 1 145 148 168 165 150 169 170 166
48 Q8 2 1 148 151 171 168 153 172 173 169
49 Q8 2 1 155 154 174 175 157 176 177 178
50 Q8 2 1 154 159 179 174 161 180 181 176
51 Q8 2 1 159 162 182 179 164 183 184 180
52 Q8 2 1 162 165 185 182 167 186 187 183
53 Q8 2 1 165 168 188 185 170 189 190 186
54 Q8 2 1 168 171 191 188 173 192 193 189
55 Q8 2 1 175 174 194 195 177 196 197 198
56 Q8 2 1 174 179 199 194 181 200 201 196
57 Q8 2 1 179 182 202 199 184 203 204 200
58 Q8 2 1 182 185 205 202 187 206 207 203
59 Q8 2 1 185 188 208 205 190 209 210 206
60 Q8 2 1 188 191 211 208 193 212 213 209
61 Q8 2 1 195 194 214 215 197 216 217 218
62 Q8 2 1 194 199 219 214 201 220 221 216
63 Q8 2 1 199 202 222 219 204 223 224 220
64 Q8 2 1 202 205 225 222 207 226 227 223
65 Q8 2 1 205 208 228 225 210 229 230 226
66 Q8 2 1 208 211 231 228 213 232 233 229
67 Q8 2 1 215 214 234 235 217 236 237 238
68 Q8 2 1 214 219 239 234 221 240 241 236
69 Q8 2 1 219 222 242 239 224 243 244 240
70 Q8 2 1 222 225 245 242 227 246 247 243
71 Q8 2 1 225 228 248 245 230 249 250 246
72 Q8 2 1 228 231 251 248 233 252 253 249
73 Q8 2 1 235 234 254 255 237 256 257 258
74 Q8 2 1 234 239 259 254 241 260 261 256
75 Q8 2 1 239 242 262 259 244 263 264 260
76 Q8 2 1 242 245 265 262 247 266 267 263
77 Q8 2 1 245 248 268 265 250 269 270 266
78 Q8 2 1 248 251 271 268 253 272 273 269
79 Q8 2 1 255 254 274 275 257 276 277 278
80 Q8 2 1 254 259 279 274 261 280 281 276
81 Q8 2 1 259 262 282 279 264 283 284 280
82 Q8 2 1 262 265 285 282 267 286 287 283
83 Q8 2 1 265 268 288 285 270 289 290 286
84 Q8 2 1 268 271 291 288 273 292 293 289
85 Q8 2 1 275 274 294 295 277 296 297 298
86 Q8 2 1 274 279 299 294 281 300 301 296
87 Q8 2 1 279 282 302 299 284 303 304 300
88 Q8 2 1 282 285 305 302 287 306 307 303
89 Q8 2 1 285 288 308 305 290 309 310 306
90 Q8 2 1 288 291 311 308 293 312 313 309
91 Q8 2 1 295 294 314 315 297 316 317 318
92 Q8 2 1 294 299 319 314 301 320 321 316
93 Q8 2 1 299 302 322 319 304 323 324 320
94 Q8 2 1 302 305 325 322 307 326 327 323
95 Q8 2 1 305 308 328 325 310 329 330 326
96 Q8 2 1 308 311 331 328 313 332 333 329
97 Q8 2 1 315 314 334 335 317 336 337 338
98 Q8 2 1 314 319 339 334 321 340 341 336
99 Q8 2 1 319 322 342 339 324 343 344 340
100 Q8 2 1 322 325 345 342 327 346 347 343
101 Q8 2 1 325 328 348 345 330 349 350 346
102 Q8 2 1 328 331 351 348 333 352 353 349
103 Q8 2 1 335 334 354 355 337 356 357 358
104 Q8 2 1 334 339 359 354 341 360 361 356
105 Q8 2 1 339 342 362 359 344 363 364 360
106 Q8 2 1 342 345 365 362 347 366 367 363
107 Q8 2 1 345 348 368 365 350 369 370 366
108 Q8 2 1 348 351 371 368 353 372 373 369
109 Q8 2 1 355 354 374 375 357 376 377 378
110 Q8 2 1 354 359 379 374 361 380 381 376
111 Q8 2 1 359 362 382 379 364 383 384 380
112 Q8 2 1 362 365 385 382 367 386 387 383
113 Q8 2 1 365 368 388 385 370 389 390 386
114 Q8 2 1 368 371 391 388 373 392 393 389
115 Q8 2 1 375 374 394 395 377 396 397 398
116 Q8 2 1 374 379 399 394 381 400 401 396
117 Q8 2 1 379 382 402 399 384 403 404 400
118 Q8 2 1 382 385 405 402 387 406 407 403
119 Q8 2 1 385 388 408 405 390 409 410 406
120 Q8 2 1 388 391 411 408 393 412 413 409
121 Q8 2 1 395 394 414 415 397 416 417 418
122 Q8 2 1 394 399 419 414 401 420 421 416
123 Q8 2 1 399 402 422 419 404 423 424 420
124 Q8 2 1 402 405 425 422 407 426 427 423
125 Q8 2 1 405 408 428 425 410 429 430 426
126 Q8 2 1 408 411 431 428 413 432 433 429
127 Q8 2 1 415 414 434 435 417 436 437 438
128 Q8 2 1 414 419 439 434 421 440 441 436
129 Q8 2 1 419 422 442 439 424 443 444 440
130 Q8 2 1 422 425 445 442 427 446 447 443
131 Q8 2 1 425 428 448 445 430 449 450 446
132 Q8 2 1 428 431 451 448 433 452 453 449
133 Q8 2 1 435 434 454 455 437 456 457 458
134 Q8 2 1 434 439 459 454 441 460 461 456
135 Q8 2 1 439 442 462 459 444 463 464 460
136 Q8 2 1 442 445 465 462 447 466 467 463
137 Q8 2 1 445 448 468 465 450 469 470 466
138 Q8 2 1 448 451 471 468 453 472 473 469
139 Q8 2 1 455 454 474 475 457 476 477 478
140 Q8 2 1 454 459 479 474 461 480 481 476
141 Q8 2 1 459 462 482 479 464 483 484 480
142 Q8 2 1 462 465 485 482 467 486 487 483
143 Q8 2 1 465 468 488 485 470 489 490 486
144 Q8 2 1 468 471 491 488 473 492 493 489
