# Presa de gravedad, elementos T3
# n_nodes n_elements dim
175 288 2

# MATERIAL material_id model E nu rho thickness
MATERIAL 1 plane_strain 21000000000.0 0.2 2400.0 1.0

# node_number x y
1 0.0000 0.0000
2 3.0000 0.0000
3 2.8958 1.2500
4 0.0000 1.2500
5 6.0000 0.0000
6 5.7917 1.2500
7 9.0000 0.0000
8 8.6875 1.2500
9 12.0000 0.0000
10 11.5833 1.2500
11 15.0000 0.0000
12 14.4792 1.2500
13 18.0000 0.0000
14 17.3750 1.2500
15 2.7917 2.5000
16 0.0000 2.5000
17 5.5833 2.5000
18 8.3750 2.5000
19 11.1667 2.5000
20 13.9583 2.5000
21 16.7500 2.5000
22 2.6875 3.7500
23 0.0000 3.7500
24 5.3750 3.7500
25 8.0625 3.7500
26 10.7500 3.7500
27 13.4375 3.7500
28 16.1250 3.7500
29 2.5833 5.0000
30 0.0000 5.0000
31 5.1667 5.0000
32 7.7500 5.0000
33 10.3333 5.0000
34 12.9167 5.0000
35 15.5000 5.0000
36 2.4792 6.2500
37 0.0000 6.2500
38 4.9583 6.2500
39 7.4375 6.2500
40 9.9167 6.2500
41 12.3958 6.2500
42 14.8750 6.2500
43 2.3750 7.5000
44 0.0000 7.5000
45 4.7500 7.5000
46 7.1250 7.5000
47 9.5000 7.5000
48 11.8750 7.5000
49 14.2500 7.5000
50 2.2708 8.7500
51 0.0000 8.7500
52 4.5417 8.7500
53 6.8125 8.7500
54 9.0833 8.7500
55 11.3542 8.7500
56 13.6250 8.7500
57 2.1667 10.0000
58 0.0000 10.0000
59 4.3333 10.0000
60 6.5000 10.0000
61 8.6667 10.0000
62 10.8333 10.0000
63 13.0000 10.0000
64 2.0625 11.2500
65 0.0000 11.2500
66 4.1250 11.2500
67 6.1875 11.2500
68 8.2500 11.2500
69 10.3125 11.2500
70 12.3750 11.2500
71 1.9583 12.5000
72 0.0000 12.5000
73 3.9167 12.5000
74 5.8750 12.5000
75 7.8333 12.5000
76 9.7917 12.5000
77 11.7500 12.5000
78 1.8542 13.7500
79 0.0000 13.7500
80 3.7083 13.7500
81 5.5625 13.7500
82 7.4167 13.7500
83 9.2708 13.7500
84 11.1250 13.7500
85 1.7500 15.0000
86 0.0000 15.0000
87 3.5000 15.0000
88 5.2500 15.0000
89 7.0000 15.0000
90 8.7500 15.0000
91 10.5000 15.0000
92 1.6458 16.2500
93 0.0000 16.2500
94 3.2917 16.2500
95 4.9375 16.2500
96 6.5833 16.2500
97 8.2292 16.2500
98 9.8750 16.2500
99 1.5417 17.5000
100 0.0000 17.5000
101 3.0833 17.5000
102 4.6250 17.5000
103 6.1667 17.5000
104 7.7083 17.5000
105 9.2500 17.5000
106 1.4375 18.7500
107 0.0000 18.7500
108 2.8750 18.7500
109 4.3125 18.7500
110 5.7500 18.7500
111 7.1875 18.7500
112 8.6250 18.7500
113 1.3333 20.0000
114 0.0000 20.0000
115 2.6667 20.0000
116 4.0000 20.0000
117 5.3333 20.0000
118 6.6667 20.0000
119 8.0000 20.0000
120 1.2292 21.2500
121 0.0000 21.2500
122 2.4583 21.2500
123 3.6875 21.2500
124 4.9167 21.2500
125 6.1458 21.2500
126 7.3750 21.2500
127 1.1250 22.5000
128 0.0000 22.5000
129 2.2500 22.5000
130 3.3750 22.5000
131 4.5000 22.5000
132 5.6250 22.5000
133 6.7500 22.5000
134 1.0208 23.7500
135 0.0000 23.7500
136 2.0417 23.7500
137 3.0625 23.7500
138 4.0833 23.7500
139 5.1042 23.7500
140 6.1250 23.7500
141 0.9167 25.0000
142 0.0000 25.0000
143 1.8333 25.0000
144 2.7500 25.0000
145 3.6667 25.0000
146 4.5833 25.0000
147 5.5000 25.0000
148 0.8125 26.2500
149 0.0000 26.2500
150 1.6250 26.2500
151 2.4375 26.2500
152 3.2500 26.2500
153 4.0625 26.2500
154 4.8750 26.2500
155 0.7083 27.5000
156 0.0000 27.5000
157 1.4167 27.5000
158 2.1250 27.5000
159 2.8333 27.5000
160 3.5417 27.5000
161 4.2500 27.5000
162 0.6042 28.7500
163 0.0000 28.7500
164 1.2083 28.7500
165 1.8125 28.7500
166 2.4167 28.7500
167 3.0208 28.7500
168 3.6250 28.7500
169 0.5000 30.0000
170 0.0000 30.0000
171 1.0000 30.0000
172 1.5000 30.0000
173 2.0000 30.0000
174 2.5000 30.0000
175 3.0000 30.0000

# element_number element_type order material_id connectivity
1 T3 1 1 1 2 3
2 T3 1 1 1 3 4
3 T3 1 1 2 5 6
4 T3 1 1 2 6 3
5 T3 1 1 5 7 8
6 T3 1 1 5 8 6
7 T3 1 1 7 9 10
8 T3 1 1 7 10 8
9 T3 1 1 9 11 12
10 T3 1 1 9 12 10
11 T3 1 1 11 13 14
12 T3 1 1 11 14 12
13 T3 1 1 4 3 15
14 T3 1 1 4 15 16
15 T3 1 1 3 6 17
16 T3 1 1 3 17 15
17 T3 1 1 6 8 18
18 T3 1 1 6 18 17
19 T3 1 1 8 10 19
20 T3 1 1 8 19 18
21 T3 1 1 10 12 20
22 T3 1 1 10 20 19
23 T3 1 1 12 14 21
24 T3 1 1 12 21 20
25 T3 1 1 16 15 22
26 T3 1 1 16 22 23
27 T3 1 1 15 17 24
28 T3 1 1 15 24 22
29 T3 1 1 17 18 25
30 T3 1 1 17 25 24
31 T3 1 1 18 19 26
32 T3 1 1 18 26 25
33 T3 1 1 19 20 27
34 T3 1 1 19 27 26
35 T3 1 1 20 21 28
36 T3 1 1 20 28 27
37 T3 1 1 23 22 29
38 T3 1 1 23 29 30
39 T3 1 1 22 24 31
40 T3 1 1 22 31 29
41 T3 1 1 24 25 32
42 T3 1 1 24 32 31
43 T3 1 1 25 26 33
44 T3 1 1 25 33 32
45 T3 1 1 26 27 34
46 T3 1 1 26 34 33
47 T3 1 1 27 28 35
48 T3 1 1 27 35 34
49 T3 1 1 30 29 36
50 T3 1 1 30 36 37
51 T3 1 1 29 31 38
52 T3 1 1 29 38 36
53 T3 1 1 31 32 39
54 T3 1 1 31 39 38
55 T3 1 1 32 33 40
56 T3 1 1 32 40 39
57 T3 1 1 33 34 41
58 T3 1 1 33 41 40
59 T3 1 1 34 35 42
60 T3 1 1 34 42 41
61 T3 1 1 37 36 43
62 T3 1 1 37 43 44
63 T3 1 1 36 38 45
64 T3 1 1 36 45 43
65 T3 1 1 38 39 46
66 T3 1 1 38 46 45
67 T3 1 1 39 40 47
68 T3 1 1 39 47 46
69 T3 1 1 40 41 48
70 T3 1 1 40 48 47
71 T3 1 1 41 42 49
72 T3 1 1 41 49 48
73 T3 1 1 44 43 50
74 T3 1 1 44 50 51
75 T3 1 1 43 45 52
76 T3 1 1 43 52 50
77 T3 1 1 45 46 53
78 T3 1 1 45 53 52
79 T3 1 1 46 47 54
80 T3 1 1 46 54 53
81 T3 1 1 47 48 55
82 T3 1 1 47 55 54
83 T3 1 1 48 49 56
84 T3 1 1 48 56 55
85 T3 1 1 51 50 57
86 T3 1 1 51 57 58
87 T3 1 1 50 52 59
88 T3 1 1 50 59 57
89 T3 1 1 52 53 60
90 T3 1 1 52 60 59
91 T3 1 1 53 54 61
92 T3 1 1 53 61 60
93 T3 1 1 54 55 62
94 T3 1 1 54 62 61
95 T3 1 1 55 56 63
96 T3 1 1 55 63 62
97 T3 1 1 58 57 64
98 T3 1 1 58 64 65
99 T3 1 1 57 59 66
100 T3 1 1 57 66 64
101 T3 1 1 59 60 67
102 T3 1 1 59 67 66
103 T3 1 1 60 61 68
104 T3 1 1 60 68 67
105 T3 1 1 61 62 69
106 T3 1 1 61 69 68
107 T3 1 1 62 63 70
108 T3 1 1 62 70 69
109 T3 1 1 65 64 71
110 T3 1 1 65 71 72
111 T3 1 1 64 66 73
112 T3 1 1 64 73 71
113 T3 1 1 66 67 74
114 T3 1 1 66 74 73
115 T3 1 1 67 68 75
116 T3 1 1 67 75 74
117 T3 1 1 68 69 76
118 T3 1 1 68 76 75
119 T3 1 1 69 70 77
120 T3 1 1 69 77 76
121 T3 1 1 72 71 78
122 T3 1 1 72 78 79
123 T3 1 1 71 73 80
124 T3 1 1 71 80 78
125 T3 1 1 73 74 81
126 T3 1 1 73 81 80
127 T3 1 1 74 75 82
128 T3 1 1 74 82 81
129 T3 1 1 75 76 83
130 T3 1 1 75 83 82
131 T3 1 1 76 77 84
132 T3 1 1 76 84 83
133 T3 1 1 79 78 85
134 T3 1 1 79 85 86
135 T3 1 1 78 80 87
136 T3 1 1 78 87 85
137 T3 1 1 80 81 88
138 T3 1 1 80 88 87
139 T3 1 1 81 82 89
140 T3 1 1 81 89 88
141 T3 1 1 82 83 90
142 T3 1 1 82 90 89
143 T3 1 1 83 84 91
144 T3 1 1 83 91 90
145 T3 1 1 86 85 92
146 T3 1 1 86 92 93
147 T3 1 1 85 87 94
148 T3 1 1 85 94 92
149 T3 1 1 87 88 95
150 T3 1 1 87 95 94
151 T3 1 1 88 89 96
152 T3 1 1 88 96 95
153 T3 1 1 89 90 97
154 T3 1 1 89 97 96
155 T3 1 1 90 91 98
156 T3 1 1 90 98 97
157 T3 1 1 93 92 99
158 T3 1 1 93 99 100
159 T3 1 1 92 94 101
160 T3 1 1 92 101 99
161 T3 1 1 94 95 102
162 T3 1 1 94 102 101
163 T3 1 1 95 96 103
164 T3 1 1 95 103 102
165 T3 1 1 96 97 104
166 T3 1 1 96 104 103
167 T3 1 1 97 98 105
168 T3 1 1 97 105 104
169 T3 1 1 100 99 106
170 T3 1 1 100 106 107
171 T3 1 1 99 101 108
172 T3 1 1 99 108 106
173 T3 1 1 101 102 109
174 T3 1 1 101 109 108
175 T3 1 1 102 103 110
176 T3 1 1 102 110 109
177 T3 1 1 103 104 111
178 T3 1 1 103 111 110
179 T3 1 1 104 105 112
180 T3 1 1 104 112 111
181 T3 1 1 107 106 113
182 T3 1 1 107 113 114
183 T3 1 1 106 108 115
184 T3 1 1 106 115 113
185 T3 1 1 108 109 116
186 T3 1 1 108 116 115
187 T3 1 1 109 110 117
188 T3 1 1 109 117 116
189 T3 1 1 110 111 118
190 T3 1 1 110 118 117
191 T3 1 1 111 112 119
192 T3 1 1 111 119 118
193 T3 1 1 114 113 120
194 T3 1 1 114 120 121
195 T3 1 1 113 115 122
196 T3 1 1 113 122 120
197 T3 1 1 115 116 123
198 T3 1 1 115 123 122
199 T3 1 1 116 117 124
200 T3 1 1 116 124 123
201 T3 1 1 117 118 125
202 T3 1 1 117 125 124
203 T3 1 1 118 119 126
204 T3 1 1 118 126 125
205 T3 1 1 121 120 127
206 T3 1 1 121 127 128
207 T3 1 1 120 122 129
208 T3 1 1 120 129 127
209 T3 1 1 122 123 130
210 T3 1 1 122 130 129
211 T3 1 1 123 124 131
212 T3 1 1 123 131 130
213 T3 1 1 124 125 132
214 T3 1 1 124 132 131
215 T3 1 1 125 126 133
216 T3 1 1 125 133 132
217 T3 1 1 128 127 134
218 T3 1 1 128 134 135
219 T3 1 1 127 129 136
220 T3 1 1 127 136 134
221 T3 1 1 129 130 137
222 T3 1 1 129 137 136
223 T3 1 1 130 131 138
224 T3 1 1 130 138 137
225 T3 1 1 131 132 139
226 T3 1 1 131 139 138
227 T3 1 1 132 133 140
228 T3 1 1 132 140 139
229 T3 1 1 135 134 141
230 T3 1 1 135 141 142
231 T3 1 1 134 136 143
232 T3 1 1 134 143 141
233 T3 1 1 136 137 144
234 T3 1 1 136 144 143
235 T3 1 1 137 138 145
236 T3 1 1 137 145 144
237 T3 1 1 138 139 146
238 T3 1 1 138 146 145
239 T3 1 1 139 140 147
240 T3 1 1 139 147 146
241 T3 1 1 142 141 148
242 T3 1 1 142 148 149
243 T3 1 1 141 143 150
244 T3 1 1 141 150 148
245 T3 1 1 143 144 151
246 T3 1 1 143 151 150
247 T3 1 1 144 145 152
248 T3 1 1 144 152 151
249 T3 1 1 145 146 153
250 T3 1 1 145 153 152
251 T3 1 1 146 147 154
252 T3 1 1 146 154 153
253 T3 1 1 149 148 155
254 T3 1 1 149 155 156
255 T3 1 1 148 150 157
256 T3 1 1 148 157 155
257 T3 1 1 150 151 158
258 T3 1 1 150 158 157
259 T3 1 1 151 152 159
260 T3 1 1 151 159 158
261 T3 1 1 152 153 160
262 T3 1 1 152 160 159
263 T3 1 1 153 154 161
264 T3 1 1 153 161 160
265 T3 1 1 156 155 162
266 T3 1 1 156 162 163
267 T3 1 1 155 157 164
268 T3 1 1 155 164 162
269 T3 1 1 157 158 165
270 T3 1 1 157 165 164
271 T3 1 1 158 159 166
272 T3 1 1 158 166 165
273 T3 1 1 159 160 167
274 T3 1 1 159 167 166
275 T3 1 1 160 161 168
276 T3 1 1 160 168 167
277 T3 1 1 163 162 169
278 T3 1 1 163 169 170
279 T3 1 1 162 164 171
280 T3 1 1 162 171 169
281 T3 1 1 164 165 172
282 T3 1 1 164 172 171
283 T3 1 1 165 166 173
284 T3 1 1 165 173 172
285 T3 1 1 166 167 174
286 T3 1 1 166 174 173
287 T3 1 1 167 168 175
288 T3 1 1 167 175 174
