# Presa de gravedad, elementos T6
# n_nodes n_elements dim
637 288 2

# MATERIAL material_id model E nu rho thickness
MATERIAL 1 plane_strain 21000000000.0 0.2 2400.0 1.0

# node_number x y
1 0.0000 0.0000
2 3.0000 0.0000
3 2.8958 1.2500
4 1.5000 0.0000
5 2.9479 0.6250
6 1.4479 0.6250
7 0.0000 1.2500
8 1.4479 1.2500
9 0.0000 0.6250
10 6.0000 0.0000
11 5.7917 1.2500
12 4.5000 0.0000
13 5.8958 0.6250
14 4.3958 0.6250
15 4.3438 1.2500
16 9.0000 0.0000
17 8.6875 1.2500
18 7.5000 0.0000
19 8.8438 0.6250
20 7.3438 0.6250
21 7.2396 1.2500
22 12.0000 0.0000
23 11.5833 1.2500
24 10.5000 0.0000
25 11.7917 0.6250
26 10.2917 0.6250
27 10.1354 1.2500
28 15.0000 0.0000
29 14.4792 1.2500
30 13.5000 0.0000
31 14.7396 0.6250
32 13.2396 0.6250
33 13.0312 1.2500
34 18.0000 0.0000
35 17.3750 1.2500
36 16.5000 0.0000
37 17.6875 0.6250
38 16.1875 0.6250
39 15.9271 1.2500
40 2.7917 2.5000
41 2.8438 1.8750
42 1.3958 1.8750
43 0.0000 2.5000
44 1.3958 2.5000
45 0.0000 1.8750
46 5.5833 2.5000
47 5.6875 1.8750
48 4.2396 1.8750
49 4.1875 2.5000
50 8.3750 2.5000
51 8.5312 1.8750
52 7.0833 1.8750
53 6.9792 2.5000
54 11.1667 2.5000
55 11.3750 1.8750
56 9.9271 1.8750
57 9.7708 2.5000
58 13.9583 2.5000
59 14.2188 1.8750
60 12.7708 1.8750
61 12.5625 2.5000
62 16.7500 2.5000
63 17.0625 1.8750
64 15.6146 1.8750
65 15.3542 2.5000
66 2.6875 3.7500
67 2.7396 3.1250
68 1.3438 3.1250
69 0.0000 3.7500
70 1.3438 3.7500
71 0.0000 3.1250
72 5.3750 3.7500
73 5.4792 3.1250
74 4.0833 3.1250
75 4.0312 3.7500
76 8.0625 3.7500
77 8.2188 3.1250
78 6.8229 3.1250
79 6.7188 3.7500
80 10.7500 3.7500
81 10.9583 3.1250
82 9.5625 3.1250
83 9.4062 3.7500
84 13.4375 3.7500
85 13.6979 3.1250
86 12.3021 3.1250
87 12.0938 3.7500
88 16.1250 3.7500
89 16.4375 3.1250
90 15.0417 3.1250
91 14.7812 3.7500
92 2.5833 5.0000
93 2.6354 4.3750
94 1.2917 4.3750
95 0.0000 5.0000
96 1.2917 5.0000
97 0.0000 4.3750
98 5.1667 5.0000
99 5.2708 4.3750
100 3.9271 4.3750
101 3.8750 5.0000
102 7.7500 5.0000
103 7.9062 4.3750
104 6.5625 4.3750
105 6.4583 5.0000
106 10.3333 5.0000
107 10.5417 4.3750
108 9.1979 4.3750
109 9.0417 5.0000
110 12.9167 5.0000
111 13.1771 4.3750
112 11.8333 4.3750
113 11.6250 5.0000
114 15.5000 5.0000
115 15.8125 4.3750
116 14.4688 4.3750
117 14.2083 5.0000
118 2.4792 6.2500
119 2.5312 5.6250
120 1.2396 5.6250
121 0.0000 6.2500
122 1.2396 6.2500
123 0.0000 5.6250
124 4.9583 6.2500
125 5.0625 5.6250
126 3.7708 5.6250
127 3.7188 6.2500
128 7.4375 6.2500
129 7.5938 5.6250
130 6.3021 5.6250
131 6.1979 6.2500
132 9.9167 6.2500
133 10.1250 5.6250
134 8.8333 5.6250
135 8.6771 6.2500
136 12.3958 6.2500
137 12.6562 5.6250
138 11.3646 5.6250
139 11.1562 6.2500
140 14.8750 6.2500
141 15.1875 5.6250
142 13.8958 5.6250
143 13.6354 6.2500
144 2.3750 7.5000
145 2.4271 6.8750
146 1.1875 6.8750
147 0.0000 7.5000
148 1.1875 7.5000
149 0.0000 6.8750
150 4.7500 7.5000
151 4.8542 6.8750
152 3.6146 6.8750
153 3.5625 7.5000
154 7.1250 7.5000
155 7.2812 6.8750
156 6.0417 6.8750
157 5.9375 7.5000
158 9.5000 7.5000
159 9.7083 6.8750
160 8.4688 6.8750
161 8.3125 7.5000
162 11.8750 7.5000
163 12.1354 6.8750
164 10.8958 6.8750
165 10.6875 7.5000
166 14.2500 7.5000
167 14.5625 6.8750
168 13.3229 6.8750
169 13.0625 7.5000
170 2.2708 8.7500
171 2.3229 8.1250
172 1.1354 8.1250
173 0.0000 8.7500
174 1.1354 8.7500
175 0.0000 8.1250
176 4.5417 8.7500
177 4.6458 8.1250
178 3.4583 8.1250
179 3.4062 8.7500
180 6.8125 8.7500
181 6.9688 8.1250
182 5.7812 8.1250
183 5.6771 8.7500
184 9.0833 8.7500
185 9.2917 8.1250
186 8.1042 8.1250
187 7.9479 8.7500
188 11.3542 8.7500
189 11.6146 8.1250
190 10.4271 8.1250
191 10.2188 8.7500
192 13.6250 8.7500
193 13.9375 8.1250
194 12.7500 8.1250
195 12.4896 8.7500
196 2.1667 10.0000
197 2.2188 9.3750
198 1.0833 9.3750
199 0.0000 10.0000
200 1.0833 10.0000
201 0.0000 9.3750
202 4.3333 10.0000
203 4.4375 9.3750
204 3.3021 9.3750
205 3.2500 10.0000
206 6.5000 10.0000
207 6.6562 9.3750
208 5.5208 9.3750
209 5.4167 10.0000
210 8.6667 10.0000
211 8.8750 9.3750
212 7.7396 9.3750
213 7.5833 10.0000
214 10.8333 10.0000
215 11.0938 9.3750
216 9.9583 9.3750
217 9.7500 10.0000
218 13.0000 10.0000
219 13.3125 9.3750
220 12.1771 9.3750
221 11.9167 10.0000
222 2.0625 11.2500
223 2.1146 10.6250
224 1.0312 10.6250
225 0.0000 11.2500
226 1.0312 11.2500
227 0.0000 10.6250
228 4.1250 11.2500
229 4.2292 10.6250
230 3.1458 10.6250
231 3.0938 11.2500
232 6.1875 11.2500
233 6.3438 10.6250
234 5.2604 10.6250
235 5.1562 11.2500
236 8.2500 11.2500
237 8.4583 10.6250
238 7.3750 10.6250
239 7.2188 11.2500
240 10.3125 11.2500
241 10.5729 10.6250
242 9.4896 10.6250
243 9.2812 11.2500
244 12.3750 11.2500
245 12.6875 10.6250
246 11.6042 10.6250
247 11.3438 11.2500
248 1.9583 12.5000
249 2.0104 11.8750
250 0.9792 11.8750
251 0.0000 12.5000
252 0.9792 12.5000
253 0.0000 11.8750
254 3.9167 12.5000
255 4.0208 11.8750
256 2.9896 11.8750
257 2.9375 12.5000
258 5.8750 12.5000
259 6.0312 11.8750
260 5.0000 11.8750
261 4.8958 12.5000
262 7.8333 12.5000
263 8.0417 11.8750
264 7.0104 11.8750
265 6.8542 12.5000
266 9.7917 12.5000
267 10.0521 11.8750
268 9.0208 11.8750
269 8.8125 12.5000
270 11.7500 12.5000
271 12.0625 11.8750
272 11.0312 11.8750
273 10.7708 12.5000
274 1.8542 13.7500
275 1.9062 13.1250
276 0.9271 13.1250
277 0.0000 13.7500
278 0.9271 13.7500
279 0.0000 13.1250
280 3.7083 13.7500
281 3.8125 13.1250
282 2.8333 13.1250
283 2.7812 13.7500
284 5.5625 13.7500
285 5.7188 13.1250
286 4.7396 13.1250
287 4.6354 13.7500
288 7.4167 13.7500
289 7.6250 13.1250
290 6.6458 13.1250
291 6.4896 13.7500
292 9.2708 13.7500
293 9.5312 13.1250
294 8.5521 13.1250
295 8.3438 13.7500
296 11.1250 13.7500
297 11.4375 13.1250
298 10.4583 13.1250
299 10.1979 13.7500
300 1.7500 15.0000
301 1.8021 14.3750
302 0.8750 14.3750
303 0.0000 15.0000
304 0.8750 15.0000
305 0.0000 14.3750
306 3.5000 15.0000
307 3.6042 14.3750
308 2.6771 14.3750
309 2.6250 15.0000
310 5.2500 15.0000
311 5.4062 14.3750
312 4.4792 14.3750
313 4.3750 15.0000
314 7.0000 15.0000
315 7.2083 14.3750
316 6.2812 14.3750
317 6.1250 15.0000
318 8.7500 15.0000
319 9.0104 14.3750
320 8.0833 14.3750
321 7.8750 15.0000
322 10.5000 15.0000
323 10.8125 14.3750
324 9.8854 14.3750
325 9.6250 15.0000
326 1.6458 16.2500
327 1.6979 15.6250
328 0.8229 15.6250
329 0.0000 16.2500
330 0.8229 16.2500
331 0.0000 15.6250
332 3.2917 16.2500
333 3.3958 15.6250
334 2.5208 15.6250
335 2.4688 16.2500
336 4.9375 16.2500
337 5.0938 15.6250
338 4.2188 15.6250
339 4.1146 16.2500
340 6.5833 16.2500
341 6.7917 15.6250
342 5.9167 15.6250
343 5.7604 16.2500
344 8.2292 16.2500
345 8.4896 15.6250
346 7.6146 15.6250
347 7.4062 16.2500
348 9.8750 16.2500
349 10.1875 15.6250
350 9.3125 15.6250
351 9.0521 16.2500
352 1.5417 17.5000
353 1.5938 16.8750
354 0.7708 16.8750
355 0.0000 17.5000
356 0.7708 17.5000
357 0.0000 16.8750
358 3.0833 17.5000
359 3.1875 16.8750
360 2.3646 16.8750
361 2.3125 17.5000
362 4.6250 17.5000
363 4.7812 16.8750
364 3.9583 16.8750
365 3.8542 17.5000
366 6.1667 17.5000
367 6.3750 16.8750
368 5.5521 16.8750
369 5.3958 17.5000
370 7.7083 17.5000
371 7.9688 16.8750
372 7.1458 16.8750
373 6.9375 17.5000
374 9.2500 17.5000
375 9.5625 16.8750
376 8.7396 16.8750
377 8.4792 17.5000
378 1.4375 18.7500
379 1.4896 18.1250
380 0.7188 18.1250
381 0.0000 18.7500
382 0.7188 18.7500
383 0.0000 18.1250
384 2.8750 18.7500
385 2.9792 18.1250
386 2.2083 18.1250
387 2.1562 18.7500
388 4.3125 18.7500
389 4.4688 18.1250
390 3.6979 18.1250
391 3.5938 18.7500
392 5.7500 18.7500
393 5.9583 18.1250
394 5.1875 18.1250
395 5.0312 18.7500
396 7.1875 18.7500
397 7.4479 18.1250
398 6.6771 18.1250
399 6.4688 18.7500
400 8.6250 18.7500
401 8.9375 18.1250
402 8.1667 18.1250
403 7.9062 18.7500
404 1.3333 20.0000
405 1.3854 19.3750
406 0.6667 19.3750
407 0.0000 20.0000
408 0.6667 20.0000
409 0.0000 19.3750
410 2.6667 20.0000
411 2.7708 19.3750
412 2.0521 19.3750
413 2.0000 20.0000
414 4.0000 20.0000
415 4.1562 19.3750
416 3.4375 19.3750
417 3.3333 20.0000
418 5.3333 20.0000
419 5.5417 19.3750
420 4.8229 19.3750
421 4.6667 20.0000
422 6.6667 20.0000
423 6.9271 19.3750
424 6.2083 19.3750
425 6.0000 20.0000
426 8.0000 20.0000
427 8.3125 19.3750
428 7.5938 19.3750
429 7.3333 20.0000
430 1.2292 21.2500
431 1.2812 20.6250
432 0.6146 20.6250
433 0.0000 21.2500
434 0.6146 21.2500
435 0.0000 20.6250
436 2.4583 21.2500
437 2.5625 20.6250
438 1.8958 20.6250
439 1.8438 21.2500
440 3.6875 21.2500
441 3.8438 20.6250
442 3.1771 20.6250
443 3.0729 21.2500
444 4.9167 21.2500
445 5.1250 20.6250
446 4.4583 20.6250
447 4.3021 21.2500
448 6.1458 21.2500
449 6.4062 20.6250
450 5.7396 20.6250
451 5.5312 21.2500
452 7.3750 21.2500
453 7.6875 20.6250
454 7.0208 20.6250
455 6.7604 21.2500
456 1.1250 22.5000
457 1.1771 21.8750
458 0.5625 21.8750
459 0.0000 22.5000
460 0.5625 22.5000
461 0.0000 21.8750
462 2.2500 22.5000
463 2.3542 21.8750
464 1.7396 21.8750
465 1.6875 22.5000
466 3.3750 22.5000
467 3.5312 21.8750
468 2.9167 21.8750
469 2.8125 22.5000
470 4.5000 22.5000
471 4.7083 21.8750
472 4.0938 21.8750
473 3.9375 22.5000
474 5.6250 22.5000
475 5.8854 21.8750
476 5.2708 21.8750
477 5.0625 22.5000
478 6.7500 22.5000
479 7.0625 21.8750
480 6.4479 21.8750
481 6.1875 22.5000
482 1.0208 23.7500
483 1.0729 23.1250
484 0.5104 23.1250
485 0.0000 23.7500
486 0.5104 23.7500
487 0.0000 23.1250
488 2.0417 23.7500
489 2.1458 23.1250
490 1.5833 23.1250
491 1.5312 23.7500
492 3.0625 23.7500
493 3.2188 23.1250
494 2.6562 23.1250
495 2.5521 23.7500
496 4.0833 23.7500
497 4.2917 23.1250
498 3.7292 23.1250
499 3.5729 23.7500
500 5.1042 23.7500
501 5.3646 23.1250
502 4.8021 23.1250
503 4.5938 23.7500
504 6.1250 23.7500
505 6.4375 23.1250
506 5.8750 23.1250
507 5.6146 23.7500
508 0.9167 25.0000
509 0.9688 24.3750
510 0.4583 24.3750
511 0.0000 25.0000
512 0.4583 25.0000
513 0.0000 24.3750
514 1.8333 25.0000
515 1.9375 24.3750
516 1.4271 24.3750
517 1.3750 25.0000
518 2.7500 25.0000
519 2.9062 24.3750
520 2.3958 24.3750
521 2.2917 25.0000
522 3.6667 25.0000
523 3.8750 24.3750
524 3.3646 24.3750
525 3.2083 25.0000
526 4.5833 25.0000
527 4.8438 24.3750
528 4.3333 24.3750
529 4.1250 25.0000
530 5.5000 25.0000
531 5.8125 24.3750
532 5.3021 24.3750
533 5.0417 25.0000
534 0.8125 26.2500
535 0.8646 25.6250
536 0.4062 25.6250
537 0.0000 26.2500
538 0.4062 26.2500
539 0.0000 25.6250
540 1.6250 26.2500
541 1.7292 25.6250
542 1.2708 25.6250
543 1.2188 26.2500
544 2.4375 26.2500
545 2.5938 25.6250
546 2.1354 25.6250
547 2.0312 26.2500
548 3.2500 26.2500
549 3.4583 25.6250
550 3.0000 25.6250
551 2.8438 26.2500
552 4.0625 26.2500
553 4.3229 25.6250
554 3.8646 25.6250
555 3.6562 26.2500
556 4.8750 26.2500
557 5.1875 25.6250
558 4.7292 25.6250
559 4.4688 26.2500
560 0.7083 27.5000
561 0.7604 26.8750
562 0.3542 26.8750
563 0.0000 27.5000
564 0.3542 27.5000
565 0.0000 26.8750
566 1.4167 27.5000
567 1.5208 26.8750
568 1.1146 26.8750
569 1.0625 27.5000
570 2.1250 27.5000
571 2.2812 26.8750
572 1.8750 26.8750
573 1.7708 27.5000
574 2.8333 27.5000
575 3.0417 26.8750
576 2.6354 26.8750
577 2.4792 27.5000
578 3.5417 27.5000
579 3.8021 26.8750
580 3.3958 26.8750
581 3.1875 27.5000
582 4.2500 27.5000
583 4.5625 26.8750
584 4.1562 26.8750
585 3.8958 27.5000
586 0.6042 28.7500
587 0.6562 28.1250
588 0.3021 28.1250
589 0.0000 28.7500
590 0.3021 28.7500
591 0.0000 28.1250
592 1.2083 28.7500
593 1.3125 28.1250
594 0.9583 28.1250
595 0.9062 28.7500
596 1.8125 28.7500
597 1.9688 28.1250
598 1.6146 28.1250
599 1.5104 28.7500
600 2.4167 28.7500
601 2.6250 28.1250
602 2.2708 28.1250
603 2.1146 28.7500
604 3.0208 28.7500
605 3.2812 28.1250
606 2.9271 28.1250
607 2.7188 28.7500
608 3.6250 28.7500
609 3.9375 28.1250
610 3.5833 28.1250
611 3.3229 28.7500
612 0.5000 30.0000
613 0.5521 29.3750
614 0.2500 29.3750
615 0.0000 30.0000
616 0.2500 30.0000
617 0.0000 29.3750
618 1.0000 30.0000
619 1.1042 29.3750
620 0.8021 29.3750
621 0.7500 30.0000
622 1.5000 30.0000
623 1.6562 29.3750
624 1.3542 29.3750
625 1.2500 30.0000
626 2.0000 30.0000
627 2.2083 29.3750
628 1.9062 29.3750
629 1.7500 30.0000
630 2.5000 30.0000
631 2.7604 29.3750
632 2.4583 29.3750
633 2.2500 30.0000
634 3.0000 30.0000
635 3.3125 29.3750
636 3.0104 29.3750
637 2.7500 30.0000

# element_number element_type order material_id connectivity
1 T6 2 1 1 2 3 4 5 6
2 T6 2 1 1 3 7 6 8 9
3 T6 2 1 2 10 11 12 13 14
4 T6 2 1 2 11 3 14 15 5
5 T6 2 1 10 16 17 18 19 20
6 T6 2 1 10 17 11 20 21 13
7 T6 2 1 16 22 23 24 25 26
8 T6 2 1 16 23 17 26 27 19
9 T6 2 1 22 28 29 30 31 32
10 T6 2 1 22 29 23 32 33 25
11 T6 2 1 28 34 35 36 37 38
12 T6 2 1 28 35 29 38 39 31
13 T6 2 1 7 3 40 8 41 42
14 T6 2 1 7 40 43 42 44 45
15 T6 2 1 3 11 46 15 47 48
16 T6 2 1 3 46 40 48 49 41
17 T6 2 1 11 17 50 21 51 52
18 T6 2 1 11 50 46 52 53 47
19 T6 2 1 17 23 54 27 55 56
20 T6 2 1 17 54 50 56 57 51
21 T6 2 1 23 29 58 33 59 60
22 T6 2 1 23 58 54 60 61 55
23 T6 2 1 29 35 62 39 63 64
24 T6 2 1 29 62 58 64 65 59
25 T6 2 1 43 40 66 44 67 68
26 T6 2 1 43 66 69 68 70 71
27 T6 2 1 40 46 72 49 73 74
28 T6 2 1 40 72 66 74 75 67
29 T6 2 1 46 50 76 53 77 78
30 T6 2 1 46 76 72 78 79 73
31 T6 2 1 50 54 80 57 81 82
32 T6 2 1 50 80 76 82 83 77
33 T6 2 1 54 58 84 61 85 86
34 T6 2 1 54 84 80 86 87 81
35 T6 2 1 58 62 88 65 89 90
36 T6 2 1 58 88 84 90 91 85
37 T6 2 1 69 66 92 70 93 94
38 T6 2 1 69 92 95 94 96 97
39 T6 2 1 66 72 98 75 99 100
40 T6 2 1 66 98 92 100 101 93
41 T6 2 1 72 76 102 79 103 104
42 T6 2 1 72 102 98 104 105 99
43 T6 2 1 76 80 106 83 107 108
44 T6 2 1 76 106 102 108 109 103
45 T6 2 1 80 84 110 87 111 112
46 T6 2 1 80 110 106 112 113 107
47 T6 2 1 84 88 114 91 115 116
48 T6 2 1 84 114 110 116 117 111
49 T6 2 1 95 92 118 96 119 120
50 T6 2 1 95 118 121 120 122 123
51 T6 2 1 92 98 124 101 125 126
52 T6 2 1 92 124 118 126 127 119
53 T6 2 1 98 102 128 105 129 130
54 T6 2 1 98 128 124 130 131 125
55 T6 2 1 102 106 132 109 133 134
56 T6 2 1 102 132 128 134 135 129
57 T6 2 1 106 110 136 113 137 138
58 T6 2 1 106 136 132 138 139 133
59 T6 2 1 110 114 140 117 141 142
60 T6 2 1 110 140 136 142 143 137
61 T6 2 1 121 118 144 122 145 146
62 T6 2 1 121 144 147 146 148 149
63 T6 2 1 118 124 150 127 151 152
64 T6 2 1 118 150 144 152 153 145
65 T6 2 1 124 128 154 131 155 156
66 T6 2 1 124 154 150 156 157 151
67 T6 2 1 128 132 158 135 159 160
68 T6 2 1 128 158 154 160 161 155
69 T6 2 1 132 136 162 139 163 164
70 T6 2 1 132 162 158 164 165 159
71 T6 2 1 136 140 166 143 167 168
72 T6 2 1 136 166 162 168 169 163
73 T6 2 1 147 144 170 148 171 172
74 T6 2 1 147 170 173 172 174 175
75 T6 2 1 144 150 176 153 177 178
76 T6 2 1 144 176 170 178 179 171
77 T6 2 1 150 154 180 157 181 182
78 T6 2 1 150 180 176 182 183 177
79 T6 2 1 154 158 184 161 185 186
80 T6 2 1 154 184 180 186 187 181
81 T6 2 1 158 162 188 165 189 190
82 T6 2 1 158 188 184 190 191 185
83 T6 2 1 162 166 192 169 193 194
84 T6 2 1 162 192 188 194 195 189
85 T6 2 1 173 170 196 174 197 198
86 T6 2 1 173 196 199 198 200 201
87 T6 2 1 170 176 202 179 203 204
88 T6 2 1 170 202 196 204 205 197
89 T6 2 1 176 180 206 183 207 208
90 T6 2 1 176 206 202 208 209 203
91 T6 2 1 180 184 210 187 211 212
92 T6 2 1 180 210 206 212 213 207
93 T6 2 1 184 188 214 191 215 216
94 T6 2 1 184 214 210 216 217 211
95 T6 2 1 188 192 218 195 219 220
96 T6 2 1 188 218 214 220 221 215
97 T6 2 1 199 196 222 200 223 224
98 T6 2 1 199 222 225 224 226 227
99 T6 2 1 196 202 228 205 229 230
100 T6 2 1 196 228 222 230 231 223
101 T6 2 1 202 206 232 209 233 234
102 T6 2 1 202 232 228 234 235 229
103 T6 2 1 206 210 236 213 237 238
104 T6 2 1 206 236 232 238 239 233
105 T6 2 1 210 214 240 217 241 242
106 T6 2 1 210 240 236 242 243 237
107 T6 2 1 214 218 244 221 245 246
108 T6 2 1 214 244 240 246 247 241
109 T6 2 1 225 222 248 226 249 250
110 T6 2 1 225 248 251 250 252 253
111 T6 2 1 222 228 254 231 255 256
112 T6 2 1 222 254 248 256 257 249
113 T6 2 1 228 232 258 235 259 260
114 T6 2 1 228 258 254 260 261 255
115 T6 2 1 232 236 262 239 263 264
116 T6 2 1 232 262 258 264 265 259
117 T6 2 1 236 240 266 243 267 268
118 T6 2 1 236 266 262 268 269 263
119 T6 2 1 240 244 270 247 271 272
120 T6 2 1 240 270 266 272 273 267
121 T6 2 1 251 248 274 252 275 276
122 T6 2 1 251 274 277 276 278 279
123 T6 2 1 248 254 280 257 281 282
124 T6 2 1 248 280 274 282 283 275
125 T6 2 1 254 258 284 261 285 286
126 T6 2 1 254 284 280 286 287 281
127 T6 2 1 258 262 288 265 289 290
128 T6 2 1 258 288 284 290 291 285
129 T6 2 1 262 266 292 269 293 294
130 T6 2 1 262 292 288 294 295 289
131 T6 2 1 266 270 296 273 297 298
132 T6 2 1 266 296 292 298 299 293
133 T6 2 1 277 274 300 278 301 302
134 T6 2 1 277 300 303 302 304 305
135 T6 2 1 274 280 306 283 307 308
136 T6 2 1 274 306 300 308 309 301
137 T6 2 1 280 284 310 287 311 312
138 T6 2 1 280 310 306 312 313 307
139 T6 2 1 284 288 314 291 315 316
140 T6 2 1 284 314 310 316 317 311
141 T6 2 1 288 292 318 295 319 320
142 T6 2 1 288 318 314 320 321 315
143 T6 2 1 292 296 322 299 323 324
144 T6 2 1 292 322 318 324 325 319
145 T6 2 1 303 300 326 304 327 328
146 T6 2 1 303 326 329 328 330 331
147 T6 2 1 300 306 332 309 333 334
148 T6 2 1 300 332 326 334 335 327
149 T6 2 1 306 310 336 313 337 338
150 T6 2 1 306 336 332 338 339 333
151 T6 2 1 310 314 340 317 341 342
152 T6 2 1 310 340 336 342 343 337
153 T6 2 1 314 318 344 321 345 346
154 T6 2 1 314 344 340 346 347 341
155 T6 2 1 318 322 348 325 349 350
156 T6 2 1 318 348 344 350 351 345
157 T6 2 1 329 326 352 330 353 354
158 T6 2 1 329 352 355 354 356 357
159 T6 2 1 326 332 358 335 359 360
160 T6 2 1 326 358 352 360 361 353
161 T6 2 1 332 336 362 339 363 364
162 T6 2 1 332 362 358 364 365 359
163 T6 2 1 336 340 366 343 367 368
164 T6 2 1 336 366 362 368 369 363
165 T6 2 1 340 344 370 347 371 372
166 T6 2 1 340 370 366 372 373 367
167 T6 2 1 344 348 374 351 375 376
168 T6 2 1 344 374 370 376 377 371
169 T6 2 1 355 352 378 356 379 380
170 T6 2 1 355 378 381 380 382 383
171 T6 2 1 352 358 384 361 385 386
172 T6 2 1 352 384 378 386 387 379
173 T6 2 1 358 362 388 365 389 390
174 T6 2 1 358 388 384 390 391 385
175 T6 2 1 362 366 392 369 393 394
176 T6 2 1 362 392 388 394 395 389
177 T6 2 1 366 370 396 373 397 398
178 T6 2 1 366 396 392 398 399 393
179 T6 2 1 370 374 400 377 401 402
180 T6 2 1 370 400 396 402 403 397
181 T6 2 1 381 378 404 382 405 406
182 T6 2 1 381 404 407 406 408 409
183 T6 2 1 378 384 410 387 411 412
184 T6 2 1 378 410 404 412 413 405
185 T6 2 1 384 388 414 391 415 416
186 T6 2 1 384 414 410 416 417 411
187 T6 2 1 388 392 418 395 419 420
188 T6 2 1 388 418 414 420 421 415
189 T6 2 1 392 396 422 399 423 424
190 T6 2 1 392 422 418 424 425 419
191 T6 2 1 396 400 426 403 427 428
192 T6 2 1 396 426 422 428 429 423
193 T6 2 1 407 404 430 408 431 432
194 T6 2 1 407 430 433 432 434 435
195 T6 2 1 404 410 436 413 437 438
196 T6 2 1 404 436 430 438 439 431
197 T6 2 1 410 414 440 417 441 442
198 T6 2 1 410 440 436 442 443 437
199 T6 2 1 414 418 444 421 445 446
200 T6 2 1 414 444 440 446 447 441
201 T6 2 1 418 422 448 425 449 450
202 T6 2 1 418 448 444 450 451 445
203 T6 2 1 422 426 452 429 453 454
204 T6 2 1 422 452 448 454 455 449
205 T6 2 1 433 430 456 434 457 458
206 T6 2 1 433 456 459 458 460 461
207 T6 2 1 430 436 462 439 463 464
208 T6 2 1 430 462 456 464 465 457
209 T6 2 1 436 440 466 443 467 468
210 T6 2 1 436 466 462 468 469 463
211 T6 2 1 440 444 470 447 471 472
212 T6 2 1 440 470 466 472 473 467
213 T6 2 1 444 448 474 451 475 476
214 T6 2 1 444 474 470 476 477 471
215 T6 2 1 448 452 478 455 479 480
216 T6 2 1 448 478 474 480 481 475
217 T6 2 1 459 456 482 460 483 484
218 T6 2 1 459 482 485 484 486 487
219 T6 2 1 456 462 488 465 489 490
220 T6 2 1 456 488 482 490 491 483
221 T6 2 1 462 466 492 469 493 494
222 T6 2 1 462 492 488 494 495 489
223 T6 2 1 466 470 496 473 497 498
224 T6 2 1 466 496 492 498 499 493
225 T6 2 1 470 474 500 477 501 502
226 T6 2 1 470 500 496 502 503 497
227 T6 2 1 474 478 504 481 505 506
228 T6 2 1 474 504 500 506 507 501
229 T6 2 1 485 482 508 486 509 510
230 T6 2 1 485 508 511 510 512 513
231 T6 2 1 482 488 514 491 515 516
232 T6 2 1 482 514 508 516 517 509
233 T6 2 1 488 492 518 495 519 520
234 T6 2 1 488 518 514 520 521 515
235 T6 2 1 492 496 522 499 523 524
236 T6 2 1 492 522 518 524 525 519
237 T6 2 1 496 500 526 503 527 528
238 T6 2 1 496 526 522 528 529 523
239 T6 2 1 500 504 530 507 531 532
240 T6 2 1 500 530 526 532 533 527
241 T6 2 1 511 508 534 512 535 536
242 T6 2 1 511 534 537 536 538 539
243 T6 2 1 508 514 540 517 541 542
244 T6 2 1 508 540 534 542 543 535
245 T6 2 1 514 518 544 521 545 546
246 T6 2 1 514 544 540 546 547 541
247 T6 2 1 518 522 548 525 549 550
248 T6 2 1 518 548 544 550 551 545
249 T6 2 1 522 526 552 529 553 554
250 T6 2 1 522 552 548 554 555 549
251 T6 2 1 526 530 556 533 557 558
252 T6 2 1 526 556 552 558 559 553
253 T6 2 1 537 534 560 538 561 562
254 T6 2 1 537 560 563 562 564 565
255 T6 2 1 534 540 566 543 567 568
256 T6 2 1 534 566 560 568 569 561
257 T6 2 1 540 544 570 547 571 572
258 T6 2 1 540 570 566 572 573 567
259 T6 2 1 544 548 574 551 575 576
260 T6 2 1 544 574 570 576 577 571
261 T6 2 1 548 552 578 555 579 580
262 T6 2 1 548 578 574 580 581 575
263 T6 2 1 552 556 582 559 583 584
264 T6 2 1 552 582 578 584 585 579
265 T6 2 1 563 560 586 564 587 588
266 T6 2 1 563 586 589 588 590 591
267 T6 2 1 560 566 592 569 593 594
268 T6 2 1 560 592 586 594 595 587
269 T6 2 1 566 570 596 573 597 598
270 T6 2 1 566 596 592 598 599 593
271 T6 2 1 570 574 600 577 601 602
272 T6 2 1 570 600 596 602 603 597
273 T6 2 1 574 578 604 581 605 606
274 T6 2 1 574 604 600 606 607 601
275 T6 2 1 578 582 608 585 609 610
276 T6 2 1 578 608 604 610 611 605
277 T6 2 1 589 586 612 590 613 614
278 T6 2 1 589 612 615 614 616 617
279 T6 2 1 586 592 618 595 619 620
280 T6 2 1 586 618 612 620 621 613
281 T6 2 1 592 596 622 599 623 624
282 T6 2 1 592 622 618 624 625 619
283 T6 2 1 596 600 626 603 627 628
284 T6 2 1 596 626 622 628 629 623
285 T6 2 1 600 604 630 607 631 632
286 T6 2 1 600 630 626 632 633 627
287 T6 2 1 604 608 634 611 635 636
288 T6 2 1 604 634 630 636 637 631
