# Patch test T3: parche de 3x3 celdas en [0,3]x[0,3] con 4 nodos interiores irregulares
# n_nodes n_elements dim
16 18 2

# MATERIAL material_id model E nu rho thickness
MATERIAL 1 plane_stress 1.0e6 0.25 0.0 1.0

# node_number x y
1 0.0000 0.0000
2 1.0000 0.0000
3 1.2000 0.8000
4 0.0000 1.0000
5 2.0000 0.0000
6 1.9000 1.3000
7 3.0000 0.0000
8 3.0000 1.0000
9 0.8000 1.9000
10 0.0000 2.0000
11 2.2000 2.1000
12 3.0000 2.0000
13 1.0000 3.0000
14 0.0000 3.0000
15 2.0000 3.0000
16 3.0000 3.0000

# element_number element_type order material_id connectivity
1 T3 1 1 1 2 3
2 T3 1 1 1 3 4
3 T3 1 1 2 5 6
4 T3 1 1 2 6 3
5 T3 1 1 5 7 8
6 T3 1 1 5 8 6
7 T3 1 1 4 3 9
8 T3 1 1 4 9 10
9 T3 1 1 3 6 11
10 T3 1 1 3 11 9
11 T3 1 1 6 8 12
12 T3 1 1 6 12 11
13 T3 1 1 10 9 13
14 T3 1 1 10 13 14
15 T3 1 1 9 11 15
16 T3 1 1 9 15 13
17 T3 1 1 11 12 16
18 T3 1 1 11 16 15
