# Patch test Q8: parche de 3x3 celdas en [0,3]x[0,3] con 4 nodos interiores irregulares
# n_nodes n_elements dim
40 9 2

# MATERIAL material_id model E nu rho thickness
MATERIAL 1 plane_stress 1.0e6 0.25 0.0 1.0

# node_number x y
1 0.0000 0.0000
2 1.0000 0.0000
3 1.2000 0.8000
4 0.0000 1.0000
5 0.5000 0.0000
6 1.1000 0.4000
7 0.6000 0.9000
8 0.0000 0.5000
9 2.0000 0.0000
10 1.9000 1.3000
11 1.5000 0.0000
12 1.9500 0.6500
13 1.5500 1.0500
14 3.0000 0.0000
15 3.0000 1.0000
16 2.5000 0.0000
17 3.0000 0.5000
18 2.4500 1.1500
19 0.8000 1.9000
20 0.0000 2.0000
21 1.0000 1.3500
22 0.4000 1.9500
23 0.0000 1.5000
24 2.2000 2.1000
25 2.0500 1.7000
26 1.5000 2.0000
27 3.0000 2.0000
28 3.0000 1.5000
29 2.6000 2.0500
30 1.0000 3.0000
31 0.0000 3.0000
32 0.9000 2.4500
33 0.5000 3.0000
34 0.0000 2.5000
35 2.0000 3.0000
36 2.1000 2.5500
37 1.5000 3.0000
38 3.0000 3.0000
39 3.0000 2.5000
40 2.5000 3.0000

# element_number element_type order material_id connectivity
1 Q8 2 1 1 2 3 4 5 6 7 8
2 Q8 2 1 2 9 10 3 11 12 13 6
3 Q8 2 1 9 14 15 10 16 17 18 12
4 Q8 2 1 4 3 19 20 7 21 22 23
5 Q8 2 1 3 10 24 19 13 25 26 21
6 Q8 2 1 10 15 27 24 18 28 29 25
7 Q8 2 1 20 19 30 31 22 32 33 34
8 Q8 2 1 19 24 35 30 26 36 37 32
9 Q8 2 1 24 27 38 35 29 39 40 36
