# Patch test T6: parche de 3x3 celdas en [0,3]x[0,3] con 4 nodos interiores irregulares
# n_nodes n_elements dim
49 18 2

# MATERIAL material_id model E nu rho thickness
MATERIAL 1 plane_stress 1.0e6 0.25 0.0 1.0

# node_number x y
1 0.0000 0.0000
2 1.0000 0.0000
3 1.2000 0.8000
4 0.5000 0.0000
5 1.1000 0.4000
6 0.6000 0.4000
7 0.0000 1.0000
8 0.6000 0.9000
9 0.0000 0.5000
10 2.0000 0.0000
11 1.9000 1.3000
12 1.5000 0.0000
13 1.9500 0.6500
14 1.4500 0.6500
15 1.5500 1.0500
16 3.0000 0.0000
17 3.0000 1.0000
18 2.5000 0.0000
19 3.0000 0.5000
20 2.5000 0.5000
21 2.4500 1.1500
22 0.8000 1.9000
23 1.0000 1.3500
24 0.4000 1.4500
25 0.0000 2.0000
26 0.4000 1.9500
27 0.0000 1.5000
28 2.2000 2.1000
29 2.0500 1.7000
30 1.7000 1.4500
31 1.5000 2.0000
32 3.0000 2.0000
33 3.0000 1.5000
34 2.4500 1.6500
35 2.6000 2.0500
36 1.0000 3.0000
37 0.9000 2.4500
38 0.5000 2.5000
39 0.0000 3.0000
40 0.5000 3.0000
41 0.0000 2.5000
42 2.0000 3.0000
43 2.1000 2.5500
44 1.4000 2.4500
45 1.5000 3.0000
46 3.0000 3.0000
47 3.0000 2.5000
48 2.6000 2.5500
49 2.5000 3.0000

# element_number element_type order material_id connectivity
1 T6 2 1 1 2 3 4 5 6
2 T6 2 1 1 3 7 6 8 9
3 T6 2 1 2 10 11 12 13 14
4 T6 2 1 2 11 3 14 15 5
5 T6 2 1 10 16 17 18 19 20
6 T6 2 1 10 17 11 20 21 13
7 T6 2 1 7 3 22 8 23 24
8 T6 2 1 7 22 25 24 26 27
9 T6 2 1 3 11 28 15 29 30
10 T6 2 1 3 28 22 30 31 23
11 T6 2 1 11 17 32 21 33 34
12 T6 2 1 11 32 28 34 35 29
13 T6 2 1 25 22 36 26 37 38
14 T6 2 1 25 36 39 38 40 41
15 T6 2 1 22 28 42 31 43 44
16 T6 2 1 22 42 36 44 45 37
17 T6 2 1 28 32 46 35 47 48
18 T6 2 1 28 46 42 48 49 43
