# n_nodes n_elements dim
24 45 2

# node_number x y
1 0.0000 0.0000
2 2.0000 0.0000
3 4.0000 0.0000
4 6.0000 0.0000
5 8.0000 0.0000
6 10.0000 0.0000
7 12.0000 0.0000
8 14.0000 0.0000
9 16.0000 0.0000
10 18.0000 0.0000
11 20.0000 0.0000
12 22.0000 0.0000
13 24.0000 0.0000
14 2.0000 0.5000
15 4.0000 1.0000
16 6.0000 1.5000
17 8.0000 2.0000
18 10.0000 2.5000
19 12.0000 3.0000
20 14.0000 2.5000
21 16.0000 2.0000
22 18.0000 1.5000
23 20.0000 1.0000
24 22.0000 0.5000

# element_number element_type connectivity
1 BAR2D 1 2
2 BAR2D 2 3
3 BAR2D 3 4
4 BAR2D 4 5
5 BAR2D 5 6
6 BAR2D 6 7
7 BAR2D 7 8
8 BAR2D 8 9
9 BAR2D 9 10
10 BAR2D 10 11
11 BAR2D 11 12
12 BAR2D 12 13
13 BAR2D 1 14
14 BAR2D 14 15
15 BAR2D 15 16
16 BAR2D 16 17
17 BAR2D 17 18
18 BAR2D 18 19
19 BAR2D 19 20
20 BAR2D 20 21
21 BAR2D 21 22
22 BAR2D 22 23
23 BAR2D 23 24
24 BAR2D 24 13
25 BAR2D 2 14
26 BAR2D 3 15
27 BAR2D 4 16
28 BAR2D 5 17
29 BAR2D 6 18
30 BAR2D 7 19
31 BAR2D 8 20
32 BAR2D 9 21
33 BAR2D 10 22
34 BAR2D 11 23
35 BAR2D 12 24
36 BAR2D 2 15
37 BAR2D 3 16
38 BAR2D 4 17
39 BAR2D 5 18
40 BAR2D 6 19
41 BAR2D 8 19
42 BAR2D 9 20
43 BAR2D 10 21
44 BAR2D 11 22
45 BAR2D 12 23
